<?xml version="1.0" encoding="utf-8"?>
<!-- Generator: Adobe Illustrator 18.1.1, SVG Export Plug-In . SVG Version: 6.00 Build 0)  -->
<!DOCTYPE svg PUBLIC "-//W3C//DTD SVG 1.1//EN" "http://www.w3.org/Graphics/SVG/1.1/DTD/svg11.dtd">
<svg version="1.1" id="Layer_1" xmlns="http://www.w3.org/2000/svg" xmlns:xlink="http://www.w3.org/1999/xlink" x="0px" y="0px"
	 viewBox="0 0 107 43.4" enable-background="new 0 0 107 43.4" xml:space="preserve">
<g>
	<g>
		<path fill="#FF1C65" d="M10.9,12.7c0-1.7,0-2,0-2.4c0-0.4-0.1-0.6-0.5-0.6c-0.1,0-0.2,0-0.3,0c-0.1,0-0.2,0-0.2-0.1
			c0-0.1,0.1-0.1,0.2-0.1c0.4,0,0.9,0,1.3,0c0.2,0,2.5,0,2.7,0c0.3,0,0.5,0,0.5-0.1c0,0,0.1,0,0.1,0c0,0,0.1,0,0.1,0.1
			c0,0.1,0,0.2-0.1,0.3c0,0.3,0,0.5-0.1,0.8c0,0.1-0.1,0.2-0.1,0.2c-0.1,0-0.1,0-0.1-0.1c0-0.2-0.1-0.4-0.2-0.6
			C14.2,10.1,14,10,13.6,10c-0.6,0-1.1,0-1.7,0c-0.1,0-0.1,0-0.1,0.1v3.1c0,0.1,0,0.1,0.1,0.1c0.5,0,1.1,0,1.5,0
			c0.6,0,0.7,0,0.9-0.2c0.1-0.1,0.1-0.1,0.1-0.1c0,0,0.1,0,0.1,0.1c0,0.1-0.1,0.3-0.1,0.6c0,0.3,0,0.6,0,0.8c0,0.1,0,0.2-0.1,0.2
			c-0.1,0-0.1-0.1-0.1-0.2c0-0.2-0.1-0.6-0.6-0.7c-0.3,0-1.5,0-1.7,0c-0.1,0-0.1,0-0.1,0.1v0.9c0,0.9,0,1.7,0,2.2
			c0,0.5,0.2,0.7,0.5,0.8c0.1,0,0.3,0,0.5,0c0.1,0,0.1,0,0.1,0.1c0,0.1-0.1,0.1-0.2,0.1c-0.6,0-1.3,0-1.4,0h-0.1c-0.2,0-0.7,0-1,0
			c-0.1,0-0.2,0-0.2-0.1c0,0,0-0.1,0.1-0.1c0.1,0,0.2,0,0.3,0c0.2-0.1,0.3-0.2,0.3-0.7c0-0.5,0-1.3,0-2.3V12.7z"/>
		<path fill="#FF1C65" d="M18.5,12.7c0-1.7,0-2,0-2.4c0-0.4-0.1-0.6-0.5-0.6c-0.1,0-0.3,0-0.4,0c0,0-0.1,0-0.1-0.1
			c0-0.1,0.1-0.1,0.2-0.1c0.5,0,1.2,0,1.3,0c0.1,0,1,0,1.3,0c0.7,0,1.4,0.1,2,0.5c0.3,0.2,0.8,0.7,0.8,1.5c0,0.8-0.3,1.6-1.3,2.6
			c0.9,1.2,1.7,2.2,2.3,2.8c0.6,0.6,1.1,0.8,1.4,0.8c0.2,0,0.4,0,0.4,0c0.1,0,0.1,0,0.1,0.1c0,0.1-0.1,0.1-0.3,0.1h-0.8
			c-0.6,0-0.9-0.1-1.2-0.2c-0.5-0.3-0.9-0.8-1.5-1.6c-0.5-0.6-1-1.4-1.2-1.6c0,0-0.1-0.1-0.1-0.1l-1.4,0c-0.1,0-0.1,0-0.1,0.1v0.3
			c0,1.1,0,1.9,0.1,2.4c0,0.3,0.1,0.6,0.4,0.6c0.2,0,0.4,0,0.5,0c0.1,0,0.1,0,0.1,0.1c0,0.1-0.1,0.1-0.2,0.1c-0.6,0-1.3,0-1.4,0
			c0,0-0.7,0-1,0c-0.1,0-0.2,0-0.2-0.1c0,0,0-0.1,0.1-0.1c0.1,0,0.2,0,0.3,0c0.2,0,0.3-0.3,0.3-0.6c0.1-0.5,0.1-1.3,0.1-2.4V12.7z
			 M19.4,13.7c0,0.1,0,0.1,0.1,0.1c0.2,0.1,0.7,0.2,1.2,0.2c0.3,0,0.6,0,0.8-0.2c0.4-0.3,0.7-0.9,0.7-1.7c0-1.4-0.7-2.2-1.9-2.2
			c-0.3,0-0.6,0-0.7,0.1c-0.1,0-0.1,0.1-0.1,0.1V13.7z"/>
		<path fill="#FF1C65" d="M28,12.7c0-1.7,0-2,0-2.4c0-0.4-0.1-0.6-0.5-0.6c-0.1,0-0.2,0-0.3,0c-0.1,0-0.1,0-0.1-0.1
			c0-0.1,0.1-0.1,0.2-0.1c0.3,0,0.6,0,1.3,0c0.1,0,2.3,0,2.5,0c0.2,0,0.4,0,0.5-0.1c0.1,0,0.1,0,0.1,0c0,0,0,0,0,0.1
			c0,0.1-0.1,0.2-0.1,0.5c0,0.2,0,0.4,0,0.7c0,0.1,0,0.2-0.1,0.2c-0.1,0-0.1-0.1-0.1-0.1c0-0.1,0-0.3-0.1-0.4
			C31.2,10.1,31,10,30.5,10c-0.2,0-1.4,0-1.5,0c0,0-0.1,0-0.1,0.1v3.1c0,0.1,0,0.1,0.1,0.1c0.1,0,1.5,0,1.8,0c0.3,0,0.4-0.1,0.6-0.2
			c0.1-0.1,0.1-0.1,0.1-0.1c0,0,0.1,0,0.1,0.1s-0.1,0.3-0.1,0.6c0,0.3,0,0.6,0,0.8c0,0.1,0,0.2-0.1,0.2c-0.1,0-0.1-0.1-0.1-0.2
			c0-0.1,0-0.2,0-0.3c0-0.2-0.2-0.3-0.6-0.4c-0.3,0-1.4-0.1-1.6-0.1c-0.1,0-0.1,0-0.1,0.1v1c0,0.4,0,1.7,0,1.9
			c0,0.5,0.1,0.7,0.4,0.8c0.2,0.1,0.5,0.1,0.9,0.1c0.3,0,0.7,0,1-0.1c0.4-0.1,0.5-0.3,0.6-0.8c0-0.1,0-0.2,0.1-0.2
			c0.1,0,0.1,0.1,0.1,0.2c0,0.1-0.1,0.8-0.1,1.1c-0.1,0.3-0.2,0.3-0.6,0.3c-0.8,0-1.2,0-1.6,0c-0.4,0-1,0-1.4,0c-0.3,0-0.5,0-0.8,0
			c-0.1,0-0.2,0-0.2-0.1c0,0,0.1-0.1,0.1-0.1c0.1,0,0.2,0,0.3,0c0.2-0.1,0.4-0.2,0.4-1c0-0.4,0-1,0-2V12.7z"/>
		<path fill="#FF1C65" d="M35.6,12.7c0-1.7,0-2,0-2.4c0-0.4-0.1-0.6-0.5-0.6c-0.1,0-0.2,0-0.3,0c-0.1,0-0.1,0-0.1-0.1
			c0-0.1,0.1-0.1,0.2-0.1c0.3,0,0.6,0,1.3,0c0.1,0,2.3,0,2.5,0c0.2,0,0.4,0,0.5-0.1c0.1,0,0.1,0,0.1,0s0,0,0,0.1
			c0,0.1-0.1,0.2-0.1,0.5c0,0.2,0,0.4,0,0.7c0,0.1,0,0.2-0.1,0.2c-0.1,0-0.1-0.1-0.1-0.1c0-0.1,0-0.3-0.1-0.4
			c-0.1-0.3-0.3-0.4-0.8-0.4c-0.2,0-1.4,0-1.5,0c0,0-0.1,0-0.1,0.1v3.1c0,0.1,0,0.1,0.1,0.1c0.1,0,1.5,0,1.8,0
			c0.3,0,0.4-0.1,0.6-0.2c0.1-0.1,0.1-0.1,0.1-0.1c0,0,0.1,0,0.1,0.1s-0.1,0.3-0.1,0.6c0,0.3,0,0.6,0,0.8c0,0.1,0,0.2-0.1,0.2
			c-0.1,0-0.1-0.1-0.1-0.2c0-0.1,0-0.2,0-0.3c0-0.2-0.2-0.3-0.6-0.4c-0.3,0-1.4-0.1-1.6-0.1c-0.1,0-0.1,0-0.1,0.1v1
			c0,0.4,0,1.7,0,1.9c0,0.5,0.1,0.7,0.4,0.8c0.2,0.1,0.5,0.1,0.9,0.1c0.3,0,0.7,0,1-0.1c0.4-0.1,0.5-0.3,0.6-0.8
			c0-0.1,0-0.2,0.1-0.2c0.1,0,0.1,0.1,0.1,0.2c0,0.1-0.1,0.8-0.1,1.1c-0.1,0.3-0.2,0.3-0.6,0.3c-0.8,0-1.2,0-1.6,0c-0.4,0-1,0-1.4,0
			c-0.3,0-0.5,0-0.8,0c-0.1,0-0.2,0-0.2-0.1c0,0,0.1-0.1,0.1-0.1c0.1,0,0.2,0,0.3,0c0.2-0.1,0.4-0.2,0.4-1c0-0.4,0-1,0-2V12.7z"/>
		<path fill="#FF1C65" d="M50.1,14.6c-0.1,0-0.1,0-0.1,0.1l-0.7,2c-0.1,0.3-0.2,0.5-0.2,0.7c0,0.2,0.2,0.3,0.4,0.3c0,0,0.1,0,0.1,0
			c0.1,0,0.1,0,0.1,0.1c0,0.1-0.1,0.1-0.2,0.1c-0.3,0-0.7,0-0.8,0c-0.1,0-0.7,0-1.3,0c-0.1,0-0.2,0-0.2-0.1c0,0,0.1-0.1,0.2-0.1
			c0.1,0,0.2,0,0.3,0c0.5-0.1,0.7-0.5,0.9-1l2.5-6.9c0.1-0.4,0.2-0.4,0.2-0.4c0.1,0,0.1,0.1,0.2,0.4c0.2,0.4,1.9,5,2.6,6.7
			c0.4,1,0.7,1.2,1,1.2c0.2,0.1,0.3,0.1,0.4,0.1c0.1,0,0.1,0,0.1,0.1c0,0.1-0.1,0.1-0.2,0.1c-0.2,0-1,0-1.7,0c-0.2,0-0.3,0-0.3-0.1
			c0,0,0-0.1,0.1-0.1c0.1,0,0.1-0.1,0.1-0.3l-1-2.7c0,0,0-0.1-0.1-0.1H50.1z M52.4,14.2C52.4,14.2,52.4,14.2,52.4,14.2l-1-3.1
			c-0.1-0.2-0.1-0.2-0.2,0l-1,3c0,0.1,0,0.1,0,0.1H52.4z"/>
		<path fill="#FF1C65" d="M58.6,16.8c-1.1-1-1.3-2.2-1.3-3.3c0-0.7,0.3-2,1.2-3c0.7-0.7,1.7-1.2,3.4-1.2c0.4,0,1.1,0,1.6,0.1
			c0.4,0.1,0.8,0.1,1.2,0.2c0.1,0,0.1,0.1,0.1,0.1c0,0.1,0,0.2-0.1,0.6c0,0.4,0,1,0,1.1c0,0.2,0,0.2-0.1,0.2c-0.1,0-0.1-0.1-0.1-0.2
			c0-0.4-0.2-0.9-0.5-1.1c-0.4-0.3-1.2-0.6-2.2-0.6c-1.5,0-2.2,0.4-2.6,0.8c-0.8,0.8-1,1.8-1,2.9c0,2.1,1.6,4.1,4,4.1
			c0.8,0,1.5-0.1,1.9-0.6c0.2-0.2,0.4-0.7,0.4-0.9c0-0.1,0-0.2,0.1-0.2c0.1,0,0.1,0.1,0.1,0.2c0,0.1-0.1,1-0.2,1.4
			c-0.1,0.2-0.1,0.2-0.3,0.3c-0.4,0.2-1.3,0.3-2,0.3C60.6,18.1,59.4,17.6,58.6,16.8z"/>
		<path fill="#FF1C65" d="M68.6,16.8c-1.1-1-1.3-2.2-1.3-3.3c0-0.7,0.3-2,1.2-3c0.7-0.7,1.7-1.2,3.4-1.2c0.4,0,1.1,0,1.6,0.1
			c0.4,0.1,0.8,0.1,1.2,0.2c0.1,0,0.1,0.1,0.1,0.1c0,0.1,0,0.2-0.1,0.6c0,0.4,0,1,0,1.1c0,0.2,0,0.2-0.1,0.2c-0.1,0-0.1-0.1-0.1-0.2
			c0-0.4-0.2-0.9-0.5-1.1c-0.4-0.3-1.2-0.6-2.2-0.6c-1.5,0-2.2,0.4-2.6,0.8c-0.8,0.8-1,1.8-1,2.9c0,2.1,1.6,4.1,4,4.1
			c0.8,0,1.5-0.1,1.9-0.6c0.2-0.2,0.4-0.7,0.4-0.9c0-0.1,0-0.2,0.1-0.2c0.1,0,0.1,0.1,0.1,0.2c0,0.1-0.1,1-0.2,1.4
			c-0.1,0.2-0.1,0.2-0.3,0.3c-0.4,0.2-1.3,0.3-2,0.3C70.6,18.1,69.5,17.6,68.6,16.8z"/>
		<path fill="#FF1C65" d="M78.4,12.7c0-1.7,0-2,0-2.4c0-0.4-0.1-0.6-0.5-0.6c-0.1,0-0.2,0-0.3,0c-0.1,0-0.1,0-0.1-0.1
			c0-0.1,0.1-0.1,0.2-0.1c0.3,0,0.6,0,1.3,0c0.1,0,2.3,0,2.5,0c0.2,0,0.4,0,0.5-0.1c0.1,0,0.1,0,0.1,0s0,0,0,0.1
			c0,0.1-0.1,0.2-0.1,0.5c0,0.2,0,0.4,0,0.7c0,0.1,0,0.2-0.1,0.2c-0.1,0-0.1-0.1-0.1-0.1c0-0.1,0-0.3-0.1-0.4
			c-0.1-0.3-0.3-0.4-0.8-0.4c-0.2,0-1.4,0-1.5,0c0,0-0.1,0-0.1,0.1v3.1c0,0.1,0,0.1,0.1,0.1c0.1,0,1.5,0,1.8,0
			c0.3,0,0.4-0.1,0.6-0.2c0.1-0.1,0.1-0.1,0.1-0.1c0,0,0.1,0,0.1,0.1s-0.1,0.3-0.1,0.6c0,0.3,0,0.6,0,0.8c0,0.1,0,0.2-0.1,0.2
			c-0.1,0-0.1-0.1-0.1-0.2c0-0.1,0-0.2,0-0.3c0-0.2-0.2-0.3-0.6-0.4c-0.3,0-1.4-0.1-1.6-0.1c-0.1,0-0.1,0-0.1,0.1v1
			c0,0.4,0,1.7,0,1.9c0,0.5,0.1,0.7,0.4,0.8c0.2,0.1,0.5,0.1,0.9,0.1c0.3,0,0.7,0,1-0.1c0.4-0.1,0.5-0.3,0.6-0.8
			c0-0.1,0-0.2,0.1-0.2c0.1,0,0.1,0.1,0.1,0.2c0,0.1-0.1,0.8-0.1,1.1c-0.1,0.3-0.2,0.3-0.6,0.3c-0.8,0-1.2,0-1.6,0c-0.4,0-1,0-1.4,0
			c-0.3,0-0.5,0-0.8,0c-0.1,0-0.2,0-0.2-0.1c0,0,0.1-0.1,0.1-0.1c0.1,0,0.2,0,0.3,0c0.2-0.1,0.4-0.2,0.4-1c0-0.4,0-1,0-2V12.7z"/>
		<path fill="#FF1C65" d="M85.6,17.7c-0.2-0.1-0.2-0.1-0.2-0.4c0-0.6,0-1,0.1-1.2c0-0.1,0-0.2,0.1-0.2c0.1,0,0.1,0,0.1,0.1
			c0,0.1,0,0.3,0,0.4c0.2,0.8,0.9,1.1,1.6,1.1c1.1,0,1.6-0.8,1.6-1.5c0-0.8-0.3-1.2-1.3-2l-0.5-0.4c-1.2-1-1.4-1.7-1.4-2.4
			c0-1.2,0.9-2,2.3-2c0.4,0,0.8,0,1,0.1c0.2,0,0.3,0.1,0.4,0.1s0.1,0,0.1,0.1s0,0.4,0,1.2c0,0.2,0,0.3-0.1,0.3
			c-0.1,0-0.1-0.1-0.1-0.1c0-0.1-0.1-0.4-0.1-0.6c-0.1-0.1-0.4-0.6-1.4-0.6c-0.8,0-1.4,0.5-1.4,1.3c0,0.6,0.3,1,1.4,1.9l0.3,0.2
			c1.3,1,1.6,1.7,1.6,2.6c0,0.5-0.2,1.3-0.9,1.8c-0.5,0.3-1.1,0.5-1.7,0.5C86.5,18.1,86,18,85.6,17.7z"/>
		<path fill="#FF1C65" d="M92.9,17.7c-0.2-0.1-0.2-0.1-0.2-0.4c0-0.6,0-1,0.1-1.2c0-0.1,0-0.2,0.1-0.2c0.1,0,0.1,0,0.1,0.1
			c0,0.1,0,0.3,0,0.4c0.2,0.8,0.9,1.1,1.6,1.1c1.1,0,1.6-0.8,1.6-1.5c0-0.8-0.3-1.2-1.3-2l-0.5-0.4c-1.2-1-1.4-1.7-1.4-2.4
			c0-1.2,0.9-2,2.3-2c0.4,0,0.8,0,1,0.1c0.2,0,0.3,0.1,0.4,0.1s0.1,0,0.1,0.1s0,0.4,0,1.2c0,0.2,0,0.3-0.1,0.3
			c-0.1,0-0.1-0.1-0.1-0.1c0-0.1-0.1-0.4-0.1-0.6c-0.1-0.1-0.4-0.6-1.4-0.6c-0.8,0-1.4,0.5-1.4,1.3c0,0.6,0.3,1,1.4,1.9l0.3,0.2
			c1.3,1,1.6,1.7,1.6,2.6c0,0.5-0.2,1.3-0.9,1.8c-0.5,0.3-1.1,0.5-1.7,0.5C93.9,18.1,93.4,18,92.9,17.7z"/>
		<path fill="#FF1C65" d="M11.4,30.7c-0.1,0-0.1,0-0.1,0.1l-0.7,2c-0.1,0.3-0.2,0.5-0.2,0.7c0,0.2,0.2,0.3,0.4,0.3c0,0,0.1,0,0.1,0
			c0.1,0,0.1,0,0.1,0.1c0,0.1-0.1,0.1-0.2,0.1c-0.3,0-0.7,0-0.8,0c-0.1,0-0.7,0-1.3,0c-0.1,0-0.2,0-0.2-0.1c0,0,0.1-0.1,0.2-0.1
			c0.1,0,0.2,0,0.3,0c0.5-0.1,0.7-0.5,0.9-1l2.5-6.9c0.1-0.4,0.2-0.4,0.2-0.4c0.1,0,0.1,0.1,0.2,0.4c0.2,0.4,1.9,5,2.6,6.7
			c0.4,1,0.7,1.2,1,1.2c0.2,0.1,0.3,0.1,0.4,0.1c0.1,0,0.1,0,0.1,0.1c0,0.1-0.1,0.1-0.2,0.1c-0.2,0-1,0-1.7,0c-0.2,0-0.3,0-0.3-0.1
			c0,0,0-0.1,0.1-0.1c0.1,0,0.1-0.1,0.1-0.3l-1-2.7c0,0,0-0.1-0.1-0.1H11.4z M13.7,30.3C13.7,30.3,13.7,30.2,13.7,30.3l-1-3.1
			c-0.1-0.2-0.1-0.2-0.2,0l-1,3c0,0.1,0,0.1,0,0.1H13.7z"/>
		<path fill="#FF1C65" d="M19.3,30.7c0-4,0-2.6,0-4.7c0-0.4,0-0.6,0.1-0.6c0.1,0,0.3,0.2,0.4,0.4c0.2,0.2,1.8,2,3.5,3.8
			c1.1,1.2,2.3,2.5,2.7,2.9l-0.1-5.6c0-0.7-0.1-1-0.4-1.1c-0.2,0-0.4-0.1-0.5-0.1c-0.1,0-0.2,0-0.2-0.1c0-0.1,0.1-0.1,0.2-0.1
			c0.5,0,1,0,1.2,0c0.1,0,0.5,0,0.9,0c0.1,0,0.2,0,0.2,0.1c0,0,0,0.1-0.1,0.1c-0.1,0-0.2,0-0.3,0c-0.3,0.1-0.4,0.2-0.4,1l0,6.5
			c0,0.7,0,0.8-0.1,0.8c-0.1,0-0.2-0.1-0.8-0.7c-0.1-0.1-1.7-1.7-2.9-3c-1.3-1.4-2.5-2.8-2.9-3.2l0.1,5.3c0,0.9,0.1,1.2,0.4,1.3
			c0.2,0.1,0.5,0.1,0.6,0.1c0.1,0,0.1,0,0.1,0.1c0,0.1-0.1,0.1-0.2,0.1c-0.6,0-1.1,0-1.2,0c-0.1,0-0.6,0-1.1,0c-0.1,0-0.2,0-0.2-0.1
			c0,0,0-0.1,0.1-0.1c0.1,0,0.3,0,0.5-0.1c0.3-0.1,0.3-0.4,0.3-1.4V30.7z"/>
		<path fill="#FF1C65" d="M33.7,30.7c0,1.1,0,1.9,0.1,2.4c0,0.3,0.1,0.6,0.4,0.6c0.2,0,0.4,0,0.5,0c0.1,0,0.1,0,0.1,0.1
			c0,0.1-0.1,0.1-0.2,0.1c-0.6,0-1.3,0-1.4,0c-0.1,0-0.8,0-1.1,0c-0.1,0-0.2,0-0.2-0.1c0,0,0-0.1,0.1-0.1c0.1,0,0.2,0,0.3,0
			c0.2,0,0.3-0.3,0.3-0.6c0.1-0.5,0.1-1.3,0.1-2.4V26c-0.5,0-1.1,0-1.6,0c-0.7,0-1,0.1-1.1,0.4c-0.1,0.2-0.2,0.3-0.2,0.3
			c0,0.1-0.1,0.1-0.1,0.1c0,0-0.1,0-0.1-0.1c0-0.1,0.2-1.1,0.2-1.2c0-0.1,0.1-0.2,0.1-0.2c0.1,0,0.2,0.1,0.5,0.1
			c0.3,0,0.7,0.1,0.9,0.1h4.2c0.4,0,0.6,0,0.8-0.1c0.2,0,0.3-0.1,0.3-0.1c0.1,0,0.1,0.1,0.1,0.1c0,0.3,0,1.1,0,1.2
			c0,0.1,0,0.1-0.1,0.1c-0.1,0-0.1,0-0.1-0.2c0,0,0-0.1,0-0.1c0-0.3-0.3-0.6-1.4-0.6c-0.5,0-0.9,0-1.4,0V30.7z"/>
		<path fill="#FF1C65" d="M45.8,29.1C45.9,29.1,45.9,29.1,45.8,29.1l0.1-0.3c0-1.7,0-2,0-2.4c0-0.4-0.1-0.6-0.5-0.6
			c-0.1,0-0.3,0-0.4,0c0,0-0.1,0-0.1-0.1c0-0.1,0.1-0.1,0.2-0.1c0.5,0,1.2,0,1.3,0s0.8,0,1.1,0c0.1,0,0.2,0,0.2,0.1
			c0,0,0,0.1-0.1,0.1c-0.1,0-0.1,0-0.3,0c-0.3,0.1-0.4,0.2-0.4,0.6c0,0.4,0,0.7,0,2.4v2c0,1.1,0,1.9,0.1,2.4c0,0.3,0.1,0.6,0.4,0.6
			c0.2,0,0.4,0,0.5,0c0.1,0,0.1,0,0.1,0.1c0,0.1-0.1,0.1-0.2,0.1c-0.6,0-1.3,0-1.4,0s-0.8,0-1.1,0c-0.1,0-0.2,0-0.2-0.1
			c0,0,0-0.1,0.1-0.1c0.1,0,0.2,0,0.3,0c0.2,0,0.3-0.3,0.3-0.6c0.1-0.5,0.1-1.3,0.1-2.4v-1.2c0,0,0-0.1-0.1-0.1h-4.7
			c0,0-0.1,0-0.1,0.1v1.2c0,1.1,0,1.9,0.1,2.4c0,0.3,0.1,0.6,0.4,0.6c0.2,0,0.4,0,0.5,0c0.1,0,0.1,0,0.1,0.1c0,0.1-0.1,0.1-0.2,0.1
			c-0.6,0-1.3,0-1.4,0s-0.8,0-1.1,0c-0.1,0-0.2,0-0.2-0.1c0,0,0-0.1,0.1-0.1c0.1,0,0.2,0,0.3,0c0.2,0,0.3-0.3,0.3-0.6
			c0.1-0.5,0.1-1.3,0.1-2.4v-2c0-1.7,0-2,0-2.4c0-0.4-0.1-0.6-0.5-0.6c-0.1,0-0.3,0-0.4,0c0,0-0.1,0-0.1-0.1c0-0.1,0.1-0.1,0.2-0.1
			c0.5,0,1.2,0,1.3,0s0.8,0,1.1,0c0.1,0,0.2,0,0.2,0.1c0,0,0,0.1-0.1,0.1c-0.1,0-0.1,0-0.3,0c-0.3,0.1-0.4,0.2-0.4,0.6
			c0,0.4,0,0.7,0,2.4V29c0,0.1,0,0.1,0.1,0.1H45.8z"/>
		<path fill="#FF1C65" d="M50.5,29.7c0-1.8,1.3-4.3,4.4-4.3c2.5,0,4.4,1.6,4.4,4.2c0,2.5-1.8,4.5-4.4,4.5
			C51.7,34.1,50.5,31.7,50.5,29.7z M58.1,29.9c0-2.7-1.6-4.1-3.4-4.1c-1.9,0-3.2,1.2-3.2,3.7c0,2.6,1.6,4.3,3.6,4.3
			C56.1,33.7,58.1,33.1,58.1,29.9z"/>
		<path fill="#FF1C65" d="M63.8,30.8c0,1.6,0,2.3,0.2,2.5c0.2,0.2,0.5,0.3,1.3,0.3c0.6,0,1.1,0,1.3-0.3c0.1-0.2,0.3-0.5,0.3-0.7
			c0-0.1,0-0.1,0.1-0.1c0.1,0,0.1,0,0.1,0.2c0,0.1-0.1,0.8-0.2,1.1c-0.1,0.3-0.1,0.3-0.7,0.3c-1,0-1.9-0.1-3-0.1c-0.3,0-0.7,0-1.1,0
			c-0.1,0-0.2,0-0.2-0.1c0,0,0-0.1,0.1-0.1c0.1,0,0.2,0,0.3,0c0.2,0,0.3-0.3,0.3-0.6c0.1-0.5,0.1-1.3,0.1-2.4v-2c0-1.7,0-2,0-2.4
			c0-0.4-0.1-0.6-0.5-0.6c-0.1,0-0.3,0-0.4,0c0,0-0.1,0-0.1-0.1c0-0.1,0.1-0.1,0.2-0.1c0.5,0,1.2,0,1.3,0c0.1,0,0.9,0,1.2,0
			c0.1,0,0.2,0,0.2,0.1c0,0,0,0.1-0.1,0.1c-0.1,0-0.2,0-0.4,0c-0.3,0.1-0.4,0.2-0.4,0.6c0,0.4,0,0.7,0,2.4V30.8z"/>
		<path fill="#FF1C65" d="M69.2,29.7c0-1.8,1.3-4.3,4.4-4.3c2.5,0,4.4,1.6,4.4,4.2c0,2.5-1.8,4.5-4.4,4.5
			C70.5,34.1,69.2,31.7,69.2,29.7z M76.9,29.9c0-2.7-1.6-4.1-3.4-4.1c-1.9,0-3.2,1.2-3.2,3.7c0,2.6,1.6,4.3,3.6,4.3
			C74.8,33.7,76.9,33.1,76.9,29.9z"/>
		<path fill="#FF1C65" d="M88.1,33c0,0.5,0,0.5-0.1,0.6c-0.7,0.4-1.7,0.5-2.4,0.5c-0.8,0-2.4-0.1-3.7-1.2c-0.7-0.6-1.3-1.8-1.3-3.2
			c0-1.8,0.9-3,1.9-3.7c1-0.6,2.1-0.7,3-0.7c0.7,0,1.5,0.1,1.7,0.2c0.2,0.1,0.6,0.1,0.9,0.1c0.1,0,0.1,0.1,0.1,0.1
			c0,0.2-0.1,0.5-0.1,1.6c0,0.2,0,0.2-0.1,0.2c-0.1,0-0.1-0.1-0.1-0.2c0-0.2-0.1-0.5-0.2-0.7c-0.3-0.4-1.2-0.9-2.6-0.9
			c-0.7,0-1.5,0.1-2.4,0.7c-0.6,0.5-1.1,1.5-1.1,2.8c0,1.6,0.8,2.7,1.2,3.1c0.9,0.9,1.9,1.2,2.9,1.2c0.4,0,1-0.1,1.3-0.2
			c0.1-0.1,0.2-0.2,0.2-0.4v-1.9c0-0.9-0.1-1-0.5-1.1c-0.1,0-0.3,0-0.4,0c0,0-0.1,0-0.1-0.1c0-0.1,0.1-0.1,0.2-0.1
			c0.5,0,1.2,0,1.3,0s0.8,0,1.1,0c0.1,0,0.2,0,0.2,0.1c0,0,0,0.1-0.1,0.1c-0.1,0-0.1,0-0.3,0c-0.3,0.1-0.4,0.2-0.4,0.6
			c0,0.4,0,0.7,0,1.2V33z"/>
		<path fill="#FF1C65" d="M93.9,31.1c0-0.6-0.1-0.8-0.3-1.2c-0.1-0.2-1.6-2.6-2-3.2c-0.3-0.4-0.6-0.7-0.8-0.8
			c-0.2-0.1-0.4-0.2-0.5-0.2c-0.1,0-0.1,0-0.1-0.1c0,0,0-0.1,0.1-0.1c0.2,0,1,0,1.1,0c0.1,0,0.5,0,0.9,0c0.1,0,0.1,0,0.1,0.1
			c0,0-0.1,0.1-0.2,0.1c-0.1,0-0.1,0.1-0.1,0.2c0,0.1,0.1,0.3,0.1,0.4c0.2,0.3,1.8,3.2,2,3.5c0.2-0.5,1.6-2.9,1.8-3.3
			c0.1-0.2,0.2-0.4,0.2-0.6c0-0.2,0-0.3-0.2-0.3c-0.1,0-0.2-0.1-0.2-0.1c0,0,0.1-0.1,0.2-0.1c0.3,0,0.6,0,0.7,0c0.1,0,0.9,0,1.1,0
			c0.1,0,0.1,0,0.1,0.1c0,0.1-0.1,0.1-0.1,0.1c-0.1,0-0.3,0-0.5,0.2c-0.2,0.1-0.3,0.3-0.6,0.6c-0.4,0.4-1.9,3.1-2.1,3.5
			c-0.2,0.4-0.2,0.7-0.2,1.1v1c0,0.2,0,0.6,0,1.1c0,0.3,0.1,0.6,0.5,0.6c0.2,0,0.4,0,0.5,0c0.1,0,0.1,0,0.1,0.1
			c0,0.1-0.1,0.1-0.2,0.1c-0.6,0-1.3,0-1.4,0s-0.8,0-1.1,0c-0.1,0-0.2,0-0.2-0.1c0,0,0-0.1,0.1-0.1c0.1,0,0.2,0,0.3,0
			c0.2,0,0.3-0.3,0.3-0.6c0-0.5,0-0.9,0-1.1V31.1z"/>
	</g>
	<g>
		<path fill="#FF1C65" d="M107,43.4H0V0h107V43.4z M1,42.4h105V1H1V42.4z"/>
	</g>
</g>
</svg>
